<?xml version="1.0" encoding="utf-8"?>
<!-- Generator: Adobe Illustrator 19.2.1, SVG Export Plug-In . SVG Version: 6.00 Build 0)  -->
<svg version="1.1" id="Layer_1" xmlns="http://www.w3.org/2000/svg" xmlns:xlink="http://www.w3.org/1999/xlink" x="0px" y="0px"
	 viewBox="0 0 137.5 118.5" style="enable-background:new 0 0 137.5 118.5;" xml:space="preserve">
<style type="text/css">
	.st0{fill:none;}
	.st1{fill:#939B64;}
	.st2{fill:url(#SVGID_1_);}
</style>
<g>
	<rect x="-4" y="-1.2" class="st0" width="146" height="97"/>
	<path class="st1" d="M10.8,51.4H0.7V1h20.2c1.9,0,3.6,0.2,5.3,0.7c1.7,0.5,3.3,1.2,4.8,2c1.5,0.9,2.8,1.9,4.1,3.2s2.3,2.6,3.2,4.1
		c0.9,1.5,1.6,3.1,2,4.8c0.5,1.7,0.7,3.5,0.7,5.3c0,2.8-0.5,5.4-1.6,7.8c-1.1,2.4-2.5,4.6-4.3,6.4s-4,3.3-6.4,4.3
		c-2.4,1.1-5.1,1.6-7.8,1.6H10.8V51.4z M10.8,11.1v20.2h10.1c1.4,0,2.7-0.3,3.9-0.8C26,30,27,29.2,28,28.3s1.6-2,2.2-3.2
		s0.8-2.5,0.8-3.9c0-1.4-0.3-2.7-0.8-3.9S28.9,15,28,14s-2-1.6-3.2-2.2c-1.2-0.5-2.5-0.8-3.9-0.8H10.8z"/>
	<path class="st1" d="M89.6,46.3c-2.3,2-5,3.6-7.9,4.6c-2.9,1.1-5.9,1.6-9,1.6c-2.4,0-4.7-0.3-6.9-0.9s-4.3-1.5-6.2-2.6
		c-1.9-1.1-3.7-2.5-5.3-4.1c-1.6-1.6-3-3.4-4.1-5.3c-1.1-1.9-2-4-2.6-6.2c-0.6-2.2-0.9-4.5-0.9-6.9s0.3-4.7,0.9-6.9
		c0.6-2.2,1.5-4.3,2.6-6.2c1.1-1.9,2.5-3.7,4.1-5.3c1.6-1.6,3.4-3,5.3-4.1c1.9-1.1,4-2,6.2-2.6c2.2-0.6,4.5-0.9,6.9-0.9
		c3.1,0,6.1,0.5,9,1.6c2.9,1.1,5.5,2.6,7.9,4.7l-5.3,8.8c-1.5-1.6-3.2-2.8-5.2-3.7c-2-0.9-4.1-1.3-6.3-1.3c-2.2,0-4.3,0.4-6.3,1.3
		c-1.9,0.8-3.6,2-5.1,3.4c-1.5,1.4-2.6,3.1-3.4,5.1c-0.8,2-1.3,4-1.3,6.2c0,2.2,0.4,4.3,1.3,6.2s2,3.6,3.4,5.1
		c1.5,1.5,3.2,2.6,5.1,3.4c1.9,0.8,4,1.3,6.3,1.3c2.2,0,4.3-0.4,6.3-1.3c2-0.9,3.8-2.1,5.2-3.7L89.6,46.3z"/>
	<path class="st1" d="M137.7,51.4h-10.1V41.3h-20.2v10.1H97.3V21.2c0-2.8,0.5-5.4,1.6-7.9c1.1-2.4,2.5-4.6,4.3-6.4
		c1.8-1.8,3.9-3.3,6.4-4.3c2.4-1.1,5.1-1.6,7.9-1.6c2.8,0,5.4,0.5,7.9,1.6c2.4,1.1,4.6,2.5,6.4,4.3s3.3,4,4.3,6.4
		c1.1,2.4,1.6,5.1,1.6,7.9V51.4z M127.6,31.3V21.2c0-1.4-0.3-2.7-0.8-3.9s-1.2-2.3-2.2-3.2s-2-1.6-3.2-2.2s-2.5-0.8-3.9-0.8
		c-1.4,0-2.7,0.3-3.9,0.8s-2.3,1.2-3.2,2.2s-1.6,2-2.2,3.2s-0.8,2.5-0.8,3.9v10.1H127.6z"/>
</g>
<linearGradient id="SVGID_1_" gradientUnits="userSpaceOnUse" x1="68.75" y1="118.5417" x2="68.75" y2="64.7917">
	<stop  offset="0" style="stop-color:#B9C7D4"/>
	<stop  offset="1" style="stop-color:#7390AA"/>
</linearGradient>
<polygon class="st2" points="137.5,91.7 68.8,118.5 0,91.7 0,64.8 137.5,64.8 "/>
</svg>
